<?xml version="1.0" encoding="UTF-8" standalone="no"?>
<!DOCTYPE svg PUBLIC "-//W3C//DTD SVG 1.1//EN" "http://www.w3.org/Graphics/SVG/1.1/DTD/svg11.dtd">
<!-- Generated by Microsoft Visio, SVG Export 001_Compute_UbuntuLogo.svg Page-1 -->
<svg xmlns="http://www.w3.org/2000/svg" xmlns:xlink="http://www.w3.org/1999/xlink" xmlns:ev="http://www.w3.org/2001/xml-events"
		xmlns:v="http://schemas.microsoft.com/visio/2003/SVGExtensions/" width="0.266698in" height="0.273383in"
		viewBox="0 0 19.2022 19.6835" xml:space="preserve" color-interpolation-filters="sRGB" class="st4">
	<v:documentProperties v:langID="3081" v:metric="true" v:viewMarkup="false"/>

	<style type="text/css">
	<![CDATA[
		.st1 {fill:#ffb516;stroke:none;stroke-linecap:butt;stroke-width:0.75}
		.st2 {fill:#fe6309;stroke:none;stroke-linecap:butt;stroke-width:0.75}
		.st3 {fill:#d70000;stroke:none;stroke-linecap:butt;stroke-width:0.75}
		.st4 {fill:none;fill-rule:evenodd;font-size:12px;overflow:visible;stroke-linecap:square;stroke-miterlimit:3}
	]]>
	</style>

	<g v:mID="0" v:index="1" v:groupContext="foregroundPage">
		<title>Page-1</title>
		<v:pageProperties v:drawingScale="1" v:pageScale="1" v:drawingUnits="19" v:shadowOffsetX="9" v:shadowOffsetY="-9"/>
		<g id="group1-1" transform="translate(0.75,-0.75)" v:mID="1" v:groupContext="group">
			<title>g3051</title>
			<g id="shape2-2" v:mID="2" v:groupContext="shape" transform="translate(3.329,-3.28108)">
				<title>path3015</title>
				<path d="M2.65 13.67 C2.65 12.26 3.31 11.01 4.34 10.21 C4.34 10.21 2.77 7.7 2.77 7.7 C1.46 8.64 0.47 10.01 0 11.6
							 C0.73 12.07 1.22 12.89 1.22 13.82 C1.22 14.72 0.77 15.52 0.08 15.99 C0.58 17.5 1.56 18.79 2.83 19.68
							 C2.83 19.68 4.29 17.09 4.29 17.09 C3.29 16.29 2.65 15.05 2.65 13.67 Z" class="st1"/>
			</g>
			<g id="shape3-4" v:mID="3" v:groupContext="shape" transform="translate(-8.84293E-14,-7.24031)">
				<title>path3017</title>
				<path d="M3.8 17.78 C3.8 18.83 2.95 19.68 1.9 19.68 C0.85 19.68 0 18.83 0 17.78 C0 16.73 0.85 15.88 1.9 15.88 C2.95
							 15.88 3.8 16.73 3.8 17.78 Z" class="st2"/>
			</g>
			<g id="shape4-6" v:mID="4" v:groupContext="shape" transform="translate(7.13694,-1.95161)">
				<title>path3019</title>
				<path d="M7.34 17.09 C7.79 17.09 8.2 17.2 8.57 17.39 C9.71 16.19 10.44 14.61 10.57 12.85 C10.57 12.85 7.61 12.79
							 7.61 12.79 C7.38 15.01 5.51 16.74 3.24 16.74 C2.61 16.74 2.01 16.6 1.47 16.36 C1.47 16.36 0 18.93 0
							 18.93 C0.98 19.41 2.08 19.68 3.24 19.68 C3.74 19.68 4.23 19.63 4.71 19.54 C4.81 18.17 5.95 17.09 7.34
							 17.09 Z" class="st3"/>
			</g>
			<g id="shape5-8" v:mID="5" v:groupContext="shape" transform="translate(12.5797,0)">
				<title>path3021</title>
				<path d="M3.8 17.78 C3.8 18.83 2.95 19.68 1.9 19.68 C0.85 19.68 0 18.83 0 17.78 C0 16.73 0.85 15.88 1.9 15.88 C2.95
							 15.88 3.8 16.73 3.8 17.78 Z" class="st1"/>
			</g>
			<g id="shape6-10" v:mID="6" v:groupContext="shape" transform="translate(7.10782,-9.80693)">
				<title>path3023</title>
				<path d="M8.8 15.37 C8.37 15.67 7.84 15.85 7.27 15.85 C5.81 15.85 4.63 14.67 4.63 13.21 C4.63 13.13 4.63 13.06 4.64
							 12.98 C4.2 12.9 3.74 12.85 3.27 12.85 C2.09 12.85 0.98 13.13 0 13.62 C0 13.62 1.46 16.19 1.46 16.19
							 C2.01 15.94 2.62 15.8 3.27 15.8 C5.52 15.8 7.38 17.5 7.63 19.68 C7.63 19.68 10.59 19.59 10.59 19.59
							 C10.46 17.98 9.8 16.52 8.8 15.37 L8.8 15.37 Z" class="st2"/>
			</g>
			<g id="shape7-12" v:mID="7" v:groupContext="shape" transform="translate(12.4806,-14.3815)">
				<title>path3025</title>
				<path d="M3.8 17.78 C3.8 18.83 2.95 19.68 1.9 19.68 C0.85 19.68 0 18.83 0 17.78 C0 16.73 0.85 15.88 1.9 15.88 C2.95
							 15.88 3.8 16.73 3.8 17.78 Z" class="st3"/>
			</g>
		</g>
	</g>
</svg>
